<svg xmlns="http://www.w3.org/2000/svg" width="900" height="320" viewBox="0 0 900 320">
  <rect width="900" height="320" fill="#040406"/>

  <!-- Connection lines -->
  <line x1="110" y1="72"  x2="245" y2="130" stroke="#E1E0E4" stroke-width="0.7" opacity="0.10"/>
  <line x1="245" y1="130" x2="390" y2="58"  stroke="#E1E0E4" stroke-width="0.7" opacity="0.10"/>
  <line x1="390" y1="58"  x2="530" y2="105" stroke="#E1E0E4" stroke-width="0.7" opacity="0.10"/>
  <line x1="530" y1="105" x2="650" y2="52"  stroke="#E1E0E4" stroke-width="0.7" opacity="0.10"/>
  <line x1="650" y1="52"  x2="790" y2="115" stroke="#E1E0E4" stroke-width="0.7" opacity="0.10"/>
  <line x1="245" y1="130" x2="175" y2="230" stroke="#E1E0E4" stroke-width="0.7" opacity="0.08"/>
  <line x1="530" y1="105" x2="460" y2="245" stroke="#E1E0E4" stroke-width="0.7" opacity="0.08"/>
  <line x1="790" y1="115" x2="720" y2="240" stroke="#E1E0E4" stroke-width="0.7" opacity="0.08"/>
  <line x1="175" y1="230" x2="460" y2="245" stroke="#E1E0E4" stroke-width="0.7" opacity="0.07"/>
  <line x1="460" y1="245" x2="720" y2="240" stroke="#E1E0E4" stroke-width="0.7" opacity="0.07"/>
  <line x1="390" y1="58"  x2="460" y2="245" stroke="#E1E0E4" stroke-width="0.7" opacity="0.06"/>
  <line x1="650" y1="52"  x2="720" y2="240" stroke="#E1E0E4" stroke-width="0.7" opacity="0.06"/>

  <!-- Nodes -->
  <circle cx="110" cy="72"  r="4.5" fill="#E1E0E4" opacity="0.35"/>
  <circle cx="245" cy="130" r="6.5" fill="#E1E0E4" opacity="0.40"/>
  <circle cx="390" cy="58"  r="5.5" fill="#E1E0E4" opacity="0.35"/>
  <circle cx="530" cy="105" r="7.0" fill="#E1E0E4" opacity="0.42"/>
  <circle cx="650" cy="52"  r="4.5" fill="#E1E0E4" opacity="0.32"/>
  <circle cx="790" cy="115" r="5.5" fill="#E1E0E4" opacity="0.36"/>
  <circle cx="175" cy="230" r="4.0" fill="#E1E0E4" opacity="0.28"/>
  <circle cx="460" cy="245" r="5.5" fill="#E1E0E4" opacity="0.33"/>
  <circle cx="720" cy="240" r="4.0" fill="#E1E0E4" opacity="0.28"/>

  <!-- Bibbo wordmark -->
  <text x="450" y="192" font-family="Georgia, 'Times New Roman', serif" font-size="96" font-weight="bold" fill="#EEEDF3" text-anchor="middle" letter-spacing="-2">Bibbo</text>

  <!-- Tagline -->
  <text x="450" y="228" font-family="-apple-system, BlinkMacSystemFont, 'Segoe UI', sans-serif" font-size="14" fill="#E1E0E4" text-anchor="middle" opacity="0.28" letter-spacing="3">YOUR KNOWLEDGE, CONNECTED</text>
</svg>
